<mxfile host="app.diagrams.net" modified="2022-04-04T03:26:44.205Z" agent="5.0 (Windows NT 10.0; Win64; x64) AppleWebKit/537.36 (KHTML, like Gecko) Chrome/97.0.4692.99 Safari/537.36" etag="_Dz8GtbASEG-Bk5L3kIF" version="15.0.6" type="github">
  <diagram id="6I0OCvxSQrVGMHxT2VVA" name="Page-1">
    <mxGraphModel dx="1483" dy="947" grid="0" gridSize="10" guides="1" tooltips="1" connect="1" arrows="1" fold="1" page="0" pageScale="1" pageWidth="850" pageHeight="1100" math="0" shadow="0">
      <root>
        <mxCell id="0" />
        <mxCell id="1" parent="0" />
        <mxCell id="C_VwkHPd_0pC2DsPMbkn-27" value="" style="rounded=0;whiteSpace=wrap;html=1;shadow=0;glass=0;sketch=0;fontSize=23;fillColor=#ffe6cc;strokeColor=#d79b00;" vertex="1" parent="1">
          <mxGeometry x="161.5" y="480" width="1140" height="560" as="geometry" />
        </mxCell>
        <mxCell id="dKdSaXE48SgPbhcamS2K-30" value="" style="whiteSpace=wrap;html=1;strokeColor=none;strokeWidth=1;fillColor=#f5f5f5;fontSize=14;" parent="1" vertex="1">
          <mxGeometry x="194" y="680" width="1075" height="300" as="geometry" />
        </mxCell>
        <mxCell id="dKdSaXE48SgPbhcamS2K-31" value="" style="whiteSpace=wrap;html=1;strokeColor=none;strokeWidth=1;fillColor=#f5f5f5;fontSize=14;" parent="1" vertex="1">
          <mxGeometry x="194" y="500" width="1075" height="160" as="geometry" />
        </mxCell>
        <mxCell id="dKdSaXE48SgPbhcamS2K-32" value="" style="whiteSpace=wrap;html=1;strokeColor=none;strokeWidth=1;fillColor=#f5f5f5;fontSize=14;" parent="1" vertex="1">
          <mxGeometry x="194" y="327.5" width="1075" height="140" as="geometry" />
        </mxCell>
        <mxCell id="dKdSaXE48SgPbhcamS2K-40" value="Service" style="html=1;whiteSpace=wrap;fillColor=#AFFFAF;shape=mxgraph.archimate3.service;fontSize=14;" parent="1" vertex="1">
          <mxGeometry x="350.5" y="695" width="150" height="50" as="geometry" />
        </mxCell>
        <mxCell id="dKdSaXE48SgPbhcamS2K-45" value="Service" style="html=1;whiteSpace=wrap;fillColor=#AFFFAF;shape=mxgraph.archimate3.service;fontSize=14;" parent="1" vertex="1">
          <mxGeometry x="770" y="695" width="150" height="50" as="geometry" />
        </mxCell>
        <mxCell id="dKdSaXE48SgPbhcamS2K-62" value="" style="html=1;whiteSpace=wrap;fillColor=#ffff99;shape=mxgraph.archimate3.actor;fontSize=14;" parent="1" vertex="1">
          <mxGeometry x="729" y="170" width="50" height="95" as="geometry" />
        </mxCell>
        <mxCell id="C_VwkHPd_0pC2DsPMbkn-2" value="请求层" style="text;html=1;strokeColor=none;fillColor=none;align=center;verticalAlign=middle;whiteSpace=wrap;rounded=0;shadow=0;glass=0;sketch=0;fontSize=23;fontStyle=0" vertex="1" parent="1">
          <mxGeometry x="50" y="390" width="110" height="20" as="geometry" />
        </mxCell>
        <mxCell id="C_VwkHPd_0pC2DsPMbkn-3" value="接入层" style="text;html=1;strokeColor=none;fillColor=none;align=center;verticalAlign=middle;whiteSpace=wrap;rounded=0;shadow=0;glass=0;sketch=0;fontSize=23;" vertex="1" parent="1">
          <mxGeometry x="55" y="550" width="100" height="20" as="geometry" />
        </mxCell>
        <mxCell id="C_VwkHPd_0pC2DsPMbkn-4" value="服务层" style="text;html=1;strokeColor=none;fillColor=none;align=center;verticalAlign=middle;whiteSpace=wrap;rounded=0;shadow=0;glass=0;sketch=0;fontSize=23;" vertex="1" parent="1">
          <mxGeometry x="65" y="710" width="80" height="20" as="geometry" />
        </mxCell>
        <mxCell id="C_VwkHPd_0pC2DsPMbkn-5" value="持久层" style="text;html=1;strokeColor=none;fillColor=none;align=center;verticalAlign=middle;whiteSpace=wrap;rounded=0;shadow=0;glass=0;sketch=0;fontSize=23;" vertex="1" parent="1">
          <mxGeometry x="65" y="880" width="80" height="20" as="geometry" />
        </mxCell>
        <mxCell id="C_VwkHPd_0pC2DsPMbkn-6" value="Android请求" style="rounded=1;whiteSpace=wrap;html=1;shadow=0;glass=0;sketch=0;fontSize=23;" vertex="1" parent="1">
          <mxGeometry x="365" y="370" width="120" height="60" as="geometry" />
        </mxCell>
        <mxCell id="C_VwkHPd_0pC2DsPMbkn-7" value="静态请求" style="rounded=1;whiteSpace=wrap;html=1;shadow=0;glass=0;sketch=0;fontSize=23;" vertex="1" parent="1">
          <mxGeometry x="564" y="370" width="120" height="60" as="geometry" />
        </mxCell>
        <mxCell id="C_VwkHPd_0pC2DsPMbkn-8" value="页面请求" style="rounded=1;whiteSpace=wrap;html=1;shadow=0;glass=0;sketch=0;fontSize=23;" vertex="1" parent="1">
          <mxGeometry x="794" y="367.5" width="120" height="60" as="geometry" />
        </mxCell>
        <mxCell id="C_VwkHPd_0pC2DsPMbkn-9" value="静态资源请求" style="rounded=1;whiteSpace=wrap;html=1;shadow=0;glass=0;sketch=0;fontSize=23;" vertex="1" parent="1">
          <mxGeometry x="1001.5" y="367.5" width="120" height="60" as="geometry" />
        </mxCell>
        <mxCell id="C_VwkHPd_0pC2DsPMbkn-14" value="" style="shape=singleArrow;direction=south;whiteSpace=wrap;html=1;rounded=0;shadow=0;glass=0;sketch=0;fontSize=23;" vertex="1" parent="1">
          <mxGeometry x="724" y="270" width="60" height="100" as="geometry" />
        </mxCell>
        <mxCell id="C_VwkHPd_0pC2DsPMbkn-15" value="MySQL数据库" style="shape=cylinder3;whiteSpace=wrap;html=1;boundedLbl=1;backgroundOutline=1;size=15;rounded=0;shadow=0;glass=0;sketch=0;fontSize=23;fillColor=#dae8fc;strokeColor=#6c8ebf;" vertex="1" parent="1">
          <mxGeometry x="320" y="840" width="790" height="80" as="geometry" />
        </mxCell>
        <mxCell id="C_VwkHPd_0pC2DsPMbkn-19" value="" style="shape=singleArrow;direction=south;whiteSpace=wrap;html=1;rounded=0;shadow=0;glass=0;sketch=0;fontSize=23;" vertex="1" parent="1">
          <mxGeometry x="393" y="440" width="65" height="250" as="geometry" />
        </mxCell>
        <mxCell id="C_VwkHPd_0pC2DsPMbkn-20" value="前端容器nginx" style="html=1;outlineConnect=0;whiteSpace=wrap;fillColor=#AFFFAF;shape=mxgraph.archimate3.application;appType=node;archiType=square;rounded=0;shadow=0;glass=0;sketch=0;fontSize=23;" vertex="1" parent="1">
          <mxGeometry x="549" y="550" width="150" height="75" as="geometry" />
        </mxCell>
        <mxCell id="C_VwkHPd_0pC2DsPMbkn-21" value="gitee静态资源库" style="html=1;outlineConnect=0;whiteSpace=wrap;fillColor=#AFFFAF;shape=mxgraph.archimate3.application;appType=node;archiType=square;rounded=0;shadow=0;glass=0;sketch=0;fontSize=23;" vertex="1" parent="1">
          <mxGeometry x="870" y="550" width="150" height="75" as="geometry" />
        </mxCell>
        <mxCell id="C_VwkHPd_0pC2DsPMbkn-22" value="" style="shape=singleArrow;direction=south;whiteSpace=wrap;html=1;rounded=0;shadow=0;glass=0;sketch=0;fontSize=23;" vertex="1" parent="1">
          <mxGeometry x="750" y="450" width="60" height="100" as="geometry" />
        </mxCell>
        <mxCell id="C_VwkHPd_0pC2DsPMbkn-23" value="" style="shape=singleArrow;direction=south;whiteSpace=wrap;html=1;rounded=0;shadow=0;glass=0;sketch=0;fontSize=23;" vertex="1" parent="1">
          <mxGeometry x="755" y="640" width="50" height="50" as="geometry" />
        </mxCell>
        <mxCell id="C_VwkHPd_0pC2DsPMbkn-24" value="" style="shape=singleArrow;direction=south;whiteSpace=wrap;html=1;rounded=0;shadow=0;glass=0;sketch=0;fontSize=23;" vertex="1" parent="1">
          <mxGeometry x="821" y="745" width="66" height="100" as="geometry" />
        </mxCell>
        <mxCell id="C_VwkHPd_0pC2DsPMbkn-25" value="" style="shape=singleArrow;direction=south;whiteSpace=wrap;html=1;rounded=0;shadow=0;glass=0;sketch=0;fontSize=23;" vertex="1" parent="1">
          <mxGeometry x="395.5" y="750" width="60" height="100" as="geometry" />
        </mxCell>
        <mxCell id="C_VwkHPd_0pC2DsPMbkn-28" value="docker容器" style="text;html=1;strokeColor=none;fillColor=none;align=center;verticalAlign=middle;whiteSpace=wrap;rounded=0;shadow=0;glass=0;sketch=0;fontSize=23;" vertex="1" parent="1">
          <mxGeometry x="681.5" y="1000" width="145" height="20" as="geometry" />
        </mxCell>
      </root>
    </mxGraphModel>
  </diagram>
</mxfile>
